<?xml version="1.0" encoding="UTF-8" standalone="no"?>
<svg
   xmlns:dc="http://purl.org/dc/elements/1.1/"
   xmlns:cc="http://creativecommons.org/ns#"
   xmlns:rdf="http://www.w3.org/1999/02/22-rdf-syntax-ns#"
   xmlns:svg="http://www.w3.org/2000/svg"
   xmlns="http://www.w3.org/2000/svg"
   xmlns:xlink="http://www.w3.org/1999/xlink"
   height="50"
   width="50"
   version="1.1"
   id="svg2">
  <defs
     id="defs12">
    <linearGradient
       id="linearGradient4167">
      <stop
         id="stop4169"
         offset="0"
         style="stop-color:#000000;stop-opacity:1;" />
      <stop
         id="stop4171"
         offset="1"
         style="stop-color:#000000;stop-opacity:0;" />
    </linearGradient>
    <linearGradient
       gradientTransform="matrix(0.34835958,0,0,0.34835958,-61.806277,-53.704542)"
       gradientUnits="userSpaceOnUse"
       y2="313.7623"
       x2="311.49368"
       y1="229.9688"
       x1="259.04813"
       id="linearGradient4173"
       xlink:href="#linearGradient4167" />
  </defs>
  <metadata
     id="metadata4">
    <rdf:RDF>
      <cc:Work
         rdf:about="">
        <dc:format>image/svg+xml</dc:format>
        <dc:type
           rdf:resource="http://purl.org/dc/dcmitype/StillImage" />
        <dc:title></dc:title>
      </cc:Work>
    </rdf:RDF>
  </metadata>
  <path
     style="fill:url(#linearGradient4173);fill-opacity:1"
     d="M 25.501945,2.026186 C 18.632004,1.906602 11.75719,4.9385157 7.3134047,10.199143 1.9775452,16.269572 0.24454062,25.189697 2.7584503,32.8495 c 1.2773192,3.95353 3.5479692,7.627537 6.6650657,10.388314 1.217615,0.91715 2.74374,1.245522 4.18676,1.62881 1.825401,0.304505 3.847996,-0.01584 5.322666,-1.182008 1.005045,-1.217579 0.221807,-2.900456 -0.324411,-4.151537 -0.980558,-2.056179 -2.690544,-3.600777 -4.250725,-5.204622 -3.073545,-3.529815 -4.304291,-8.586444 -3.120222,-13.123126 0.84046,-3.596232 3.156472,-6.782881 6.209765,-8.840305 1.685666,-1.159207 3.660266,-1.886533 5.657097,-2.29774 4.685565,-0.8177122 9.746332,0.397534 13.375496,3.521204 4.608446,3.81645 6.73902,10.283501 5.465188,16.110237 -0.680479,3.557915 -2.480192,6.913196 -5.207381,9.318756 -3.760026,3.63839 -8.582754,6.234619 -13.786012,6.995447 -0.704885,0.07221 -2.739079,0.301923 -1.400013,1.18908 2.243926,1.180744 4.934308,1.039739 7.361447,0.623665 3.682925,-0.753269 7.24039,-2.231153 10.229823,-4.533778 4.606394,-3.490814 7.799461,-8.77969 8.710209,-14.489604 0.650632,-3.539501 0.303973,-7.228848 -0.712862,-10.663677 -1.1667,-3.480614 -3.004577,-6.77728 -5.667259,-9.3367651 C 39.576748,6.8293379 37.297964,5.2489572 34.799309,4.1376093 31.905052,2.7548737 28.69793,2.1052974 25.501945,2.026186 Z"
     id="path4165" />
</svg>
