<?xml version="1.0" encoding="UTF-8" standalone="no"?>
<!-- Created with Inkscape (http://www.inkscape.org/) -->

<svg
   xmlns:dc="http://purl.org/dc/elements/1.1/"
   xmlns:cc="http://creativecommons.org/ns#"
   xmlns:rdf="http://www.w3.org/1999/02/22-rdf-syntax-ns#"
   xmlns:svg="http://www.w3.org/2000/svg"
   xmlns="http://www.w3.org/2000/svg"
   xmlns:sodipodi="http://sodipodi.sourceforge.net/DTD/sodipodi-0.dtd"
   xmlns:inkscape="http://www.inkscape.org/namespaces/inkscape"
   width="30"
   height="30"
   viewBox="0 0 30.000001 30"
   id="svg2"
   version="1.1"
   inkscape:version="0.91 r13725"
   sodipodi:docname="gear.svg">
  <defs
     id="defs4" />
  <sodipodi:namedview
     id="base"
     pagecolor="#ffffff"
     bordercolor="#666666"
     borderopacity="1.0"
     inkscape:pageopacity="0.0"
     inkscape:pageshadow="2"
     inkscape:zoom="7.9195959"
     inkscape:cx="9.4412904"
     inkscape:cy="21.449046"
     inkscape:document-units="px"
     inkscape:current-layer="layer1"
     showgrid="false"
     fit-margin-top="0"
     fit-margin-left="0"
     fit-margin-right="0"
     fit-margin-bottom="0"
     inkscape:window-width="1920"
     inkscape:window-height="1136"
     inkscape:window-x="1280"
     inkscape:window-y="27"
     inkscape:window-maximized="1"
     units="px" />
  <metadata
     id="metadata7">
    <rdf:RDF>
      <cc:Work
         rdf:about="">
        <dc:format>image/svg+xml</dc:format>
        <dc:type
           rdf:resource="http://purl.org/dc/dcmitype/StillImage" />
        <dc:title></dc:title>
      </cc:Work>
    </rdf:RDF>
  </metadata>
  <g
     inkscape:label="Ebene 1"
     inkscape:groupmode="layer"
     id="layer1"
     transform="translate(-168.35796,-463.71599)">
    <path
       style="fill:#ffffff;fill-opacity:1"
       d="m 178.21388,492.80949 c -0.80709,-0.24691 -1.64702,-0.62587 -2.16147,-1.32012 -0.14913,-0.72234 0.0582,-1.4791 0.11761,-2.20878 0.0965,-0.72583 0.22432,-1.44686 0.34712,-2.16854 -0.24968,-0.63664 -0.71121,-1.18779 -1.3608,-1.44242 -0.27359,-0.19894 -0.60993,0.0114 -0.91501,0.0179 -1.14115,0.16056 -2.28553,0.40803 -3.44064,0.38846 -0.62619,-0.14533 -0.8842,-0.84519 -1.19436,-1.33962 -0.32914,-0.68136 -0.59064,-1.46266 -0.44211,-2.22333 0.51294,-0.66931 1.2711,-1.10489 1.9175,-1.63765 0.53381,-0.48976 1.33115,-0.79099 1.61517,-1.49549 0.21461,-0.58393 0.0968,-1.25418 -0.14535,-1.79741 -1.10026,-0.83494 -2.2609,-1.60068 -3.27231,-2.544 -0.38665,-0.65544 0.006,-1.48884 0.21778,-2.15455 0.28881,-0.6045 0.5975,-1.38245 1.29731,-1.58697 1.37289,-0.0499 2.71276,0.38201 4.07886,0.42648 0.75355,-0.14995 1.44883,-0.77908 1.60349,-1.53733 -0.16427,-1.32471 -0.43943,-2.64193 -0.49992,-3.97814 0.0842,-0.66209 0.79565,-0.97522 1.30205,-1.29023 0.74038,-0.38988 1.66775,-0.65962 2.47746,-0.35262 1.00927,1.11275 1.85716,2.35979 2.74166,3.57204 0.59351,0 1.18702,0 1.78054,0 0.89077,-1.20826 1.74892,-2.45261 2.75945,-3.56377 0.54906,-0.29987 1.2476,-0.0723 1.8226,0.0709 0.72892,0.24323 1.42537,0.66269 1.89299,1.2813 0.15469,0.65352 -0.0698,1.33786 -0.11539,1.99846 -0.0703,0.82022 -0.34162,1.63322 -0.26823,2.45911 0.18322,0.76519 0.94318,1.08727 1.58586,1.39493 1.3057,-0.20728 2.61234,-0.42881 3.93208,-0.52082 0.66969,0.16169 1.0112,0.86786 1.31814,1.42545 0.28255,0.6549 0.56682,1.38585 0.45461,2.10785 -0.3492,0.5986 -1.01173,0.94051 -1.52225,1.39197 -0.62516,0.5329 -1.39006,0.91288 -1.93187,1.53429 -0.35824,0.67754 -0.16219,1.49846 0.15406,2.14119 1.06584,0.82225 2.20047,1.57014 3.15595,2.52268 0.41116,0.52646 0.0445,1.22287 -0.0888,1.79078 -0.29125,0.72257 -0.65108,1.53269 -1.37484,1.90815 -0.9023,0.0496 -1.8051,-0.17364 -2.70251,-0.26805 -0.69759,-0.0327 -1.49608,-0.45148 -2.11785,0.0418 -0.59783,0.47611 -1.0203,1.26492 -0.81781,2.04052 0.1382,1.14791 0.39164,2.29237 0.38427,3.45135 -0.37739,0.72257 -1.21652,1.08826 -1.93587,1.39478 -0.6475,0.11984 -1.5474,0.50166 -2.02171,-0.15325 -0.93254,-1.04996 -1.72996,-2.20873 -2.55293,-3.34418 -0.5945,-7.3e-4 -1.18898,-0.002 -1.78345,-0.002 -0.87897,1.19902 -1.71466,2.43971 -2.73047,3.5282 -0.45331,0.32361 -1.06583,0.15007 -1.56068,0.0409 z m 6.39688,-10.25936 c 1.51487,-0.51458 2.71657,-1.93069 2.79426,-3.55516 0.13654,-1.34052 -0.47041,-2.69485 -1.54037,-3.50759 -1.4958,-1.19267 -3.90314,-1.09847 -5.24107,0.29865 -0.89963,0.77657 -1.31274,1.99107 -1.26483,3.15691 0.11835,2.064 2.03148,3.95624 4.15026,3.7471 0.36944,-0.0165 0.74422,-0.0384 1.10175,-0.13991 z"
       id="path4147"
       inkscape:connector-curvature="0" />
  </g>
</svg>
